<mxfile host="app.diagrams.net" modified="2024-04-11T17:10:52.989Z" agent="Mozilla/5.0 (Windows NT 10.0; Win64; x64) AppleWebKit/537.36 (KHTML, like Gecko) Chrome/122.0.0.0 Safari/537.36 Edg/122.0.0.0" version="24.2.3" etag="8e9dirTSay5mFhOTEid7" type="github">
  <diagram name="第 1 页" id="c6OjFMDjyPjdsitWP3nT">
    <mxGraphModel>
      <root>
        <mxCell id="0" />
        <mxCell id="1" parent="0" />
      </root>
    </mxGraphModel>
  </diagram>
</mxfile>
